P_AM2_Trial_4_grf.mot						
version=1						
nRows=149						
nColumns=7						
inDegrees=yes						
endheader						
time	ground_force_vx	ground_force_vy	ground_force_vz	ground_force_px	ground_force_py	ground_force_pz
17.425	-0.16433	4.3199	0.44142	-0.061239	0.055341	0.08279
17.433	-0.16289	3.7888	0.38641	-0.060885	0.055341	0.082623
17.442	-0.1624	3.2904	0.33656	-0.060438	0.055341	0.082408
17.45	-0.16279	2.8251	0.29176	-0.059863	0.055341	0.08213
17.458	-0.16395	2.3929	0.25189	-0.059113	0.055341	0.081764
17.467	-0.1658	1.9936	0.21682	-0.058112	0.055341	0.081274
17.475	-0.16825	1.627	0.18636	-0.056738	0.055341	0.080598
17.483	-0.17118	1.2925	0.16032	-0.054775	0.055341	0.079629
17.492	-0.17451	0.98949	0.13851	-0.051816	0.055341	0.078164
17.5	-0.17813	0.71713	0.12069	-0.046973	0.055342	0.075762
17.508	-0.18195	0.47451	0.10661	-0.037905	0.055342	0.071259
17.517	-0.18587	0.26055	0.096035	-0.015768	0.055343	0.060256
17.525	-0.1898	0.074065	0.088695	0.10822	0.055349	-0.001398
17.533	-0.19366	-0.086204	0.084321	-0.21448	0.055334	0.15909
17.542	-0.19736	-0.22162	0.082642	-0.12343	0.055338	0.11381
17.55	-0.20084	-0.3336	0.083382	-0.10408	0.055339	0.1042
17.558	-0.20404	-0.42364	0.086267	-0.09603	0.05534	0.10019
17.567	-0.20688	-0.49324	0.091025	-0.091896	0.05534	0.09814
17.575	-0.20932	-0.54395	0.09739	-0.089628	0.05534	0.097012
17.583	-0.21132	-0.57734	0.1051	-0.088439	0.05534	0.096418
17.592	-0.21285	-0.59496	0.11391	-0.087977	0.05534	0.096183
17.6	-0.21389	-0.59838	0.12357	-0.088075	0.05534	0.096221
17.608	-0.2144	-0.58911	0.13387	-0.088663	0.05534	0.096499
17.617	-0.2144	-0.56867	0.14458	-0.089736	0.05534	0.097011
17.625	-0.21388	-0.53852	0.15551	-0.091339	0.055339	0.097777
17.633	-0.21284	-0.50006	0.16647	-0.093578	0.055339	0.098846
17.642	-0.2113	-0.45466	0.17731	-0.09664	0.055339	0.1003
17.65	-0.20927	-0.40361	0.18786	-0.10084	0.055338	0.1023
17.658	-0.20679	-0.34812	0.198	-0.10674	0.055337	0.1051
17.667	-0.20389	-0.28936	0.20762	-0.11539	0.055336	0.1092
17.675	-0.20059	-0.2284	0.21662	-0.12898	0.055334	0.11561
17.683	-0.19693	-0.16622	0.22492	-0.15296	0.05533	0.12692
17.692	-0.19296	-0.10373	0.23245	-0.20569	0.055321	0.15174
17.7	-0.18871	-0.041767	0.23917	-0.41088	0.055285	0.24822
17.708	-0.18424	0.018944	0.24504	0.73934	0.055485	-0.29236
17.717	-0.17959	0.077745	0.25005	0.12504	0.055378	-0.0035888
17.725	-0.17479	0.13407	0.25419	0.044459	0.055365	0.034331
17.733	-0.1699	0.18743	0.25747	0.012888	0.055359	0.049218
17.742	-0.16496	0.23741	0.2599	-0.0038332	0.055357	0.057128
17.75	-0.16	0.2837	0.26153	-0.014099	0.055355	0.062007
17.758	-0.15508	0.32603	0.26238	-0.020974	0.055354	0.065294
17.767	-0.15024	0.36421	0.2625	-0.025843	0.055354	0.067641
17.775	-0.14549	0.39815	0.26194	-0.029423	0.055353	0.069386
17.783	-0.14089	0.42776	0.26078	-0.032121	0.055353	0.070718
17.792	-0.13646	0.45306	0.25905	-0.034184	0.055353	0.071756
17.8	-0.13223	0.4741	0.25685	-0.035771	0.055353	0.072573
17.808	-0.12822	0.49097	0.25423	-0.036988	0.055353	0.073219
17.817	-0.12445	0.50383	0.25126	-0.037909	0.055354	0.073729
17.825	-0.12095	0.51284	0.24802	-0.038583	0.055354	0.074128
17.833	-0.11772	0.51822	0.24457	-0.039048	0.055354	0.074431
17.842	-0.11477	0.52021	0.241	-0.03933	0.055355	0.074652
17.85	-0.11212	0.51905	0.23735	-0.039448	0.055355	0.074799
17.858	-0.10978	0.51504	0.2337	-0.039414	0.055355	0.074879
17.867	-0.10773	0.50846	0.23011	-0.039239	0.055356	0.074895
17.875	-0.10598	0.49961	0.22663	-0.038928	0.055357	0.074852
17.883	-0.10453	0.48878	0.22332	-0.038484	0.055357	0.074749
17.892	-0.10337	0.47627	0.22022	-0.037909	0.055358	0.074588
17.9	-0.10249	0.46239	0.21737	-0.037205	0.055358	0.074368
17.908	-0.10189	0.44742	0.21481	-0.03637	0.055359	0.074089
17.917	-0.10154	0.43165	0.21256	-0.035402	0.05536	0.07375
17.925	-0.10144	0.41534	0.21066	-0.034303	0.05536	0.073349
17.933	-0.10157	0.39874	0.20911	-0.03307	0.055361	0.072885
17.942	-0.10192	0.3821	0.20792	-0.031706	0.055362	0.072358
17.95	-0.10246	0.36562	0.20711	-0.030212	0.055363	0.071768
17.958	-0.10317	0.34952	0.20667	-0.028595	0.055364	0.071116
17.967	-0.10405	0.33397	0.20658	-0.026863	0.055364	0.070404
17.975	-0.10507	0.31912	0.20685	-0.02503	0.055365	0.069637
17.983	-0.1062	0.30511	0.20745	-0.023112	0.055366	0.068821
17.992	-0.10744	0.29205	0.20835	-0.021135	0.055367	0.067965
18	-0.10876	0.28004	0.20953	-0.019126	0.055367	0.067081
18.008	-0.11014	0.26915	0.21097	-0.017119	0.055368	0.066185
18.017	-0.11156	0.25942	0.21262	-0.015153	0.055368	0.065292
18.025	-0.11301	0.25089	0.21444	-0.013268	0.055369	0.064422
18.033	-0.11446	0.24356	0.2164	-0.011506	0.055369	0.063595
18.042	-0.11591	0.23742	0.21846	-0.0099066	0.055369	0.06283
18.05	-0.11733	0.23247	0.22057	-0.0085039	0.055369	0.062146
18.058	-0.11872	0.22865	0.2227	-0.0073261	0.055369	0.061558
18.067	-0.12005	0.22592	0.22479	-0.0063917	0.055369	0.06108
18.075	-0.12132	0.22421	0.2268	-0.0057095	0.055369	0.060718
18.083	-0.12251	0.22345	0.2287	-0.0052776	0.055369	0.060476
18.092	-0.12362	0.22356	0.23045	-0.0050848	0.055369	0.060352
18.1	-0.12463	0.22445	0.23201	-0.0051118	0.055369	0.060342
18.108	-0.12555	0.22603	0.23334	-0.0053334	0.055369	0.060435
18.117	-0.12635	0.2282	0.23443	-0.0057204	0.055369	0.060622
18.125	-0.12706	0.23087	0.23523	-0.0062419	0.055369	0.060889
18.133	-0.12764	0.23394	0.23574	-0.0068673	0.055369	0.061224
18.142	-0.12812	0.23731	0.23593	-0.0075671	0.055369	0.061614
18.15	-0.12849	0.2409	0.23579	-0.0083146	0.055369	0.062047
18.158	-0.12874	0.24461	0.23531	-0.0090858	0.05537	0.062511
18.167	-0.12889	0.24836	0.23449	-0.0098603	0.05537	0.062998
18.175	-0.12894	0.25207	0.23333	-0.010621	0.055371	0.063497
18.183	-0.12889	0.25567	0.23184	-0.011353	0.055371	0.064003
18.192	-0.12875	0.25909	0.23001	-0.012045	0.055372	0.06451
18.2	-0.12852	0.26229	0.22787	-0.01269	0.055373	0.065012
18.208	-0.12822	0.26521	0.22543	-0.013278	0.055374	0.065506
18.217	-0.12786	0.26781	0.22271	-0.013807	0.055375	0.06599
18.225	-0.12743	0.27007	0.21972	-0.014272	0.055376	0.06646
18.233	-0.12696	0.27194	0.2165	-0.014672	0.055377	0.066915
18.242	-0.12645	0.27343	0.21307	-0.015004	0.055378	0.067355
18.25	-0.12591	0.27451	0.20945	-0.015268	0.05538	0.067777
18.258	-0.12535	0.27519	0.20567	-0.015465	0.055381	0.068183
18.267	-0.12477	0.27546	0.20176	-0.015595	0.055383	0.068571
18.275	-0.1242	0.27535	0.19774	-0.015659	0.055384	0.068942
18.283	-0.12363	0.27485	0.19366	-0.015658	0.055386	0.069295
18.292	-0.12307	0.27399	0.18952	-0.015595	0.055388	0.069631
18.3	-0.12253	0.27278	0.18537	-0.015469	0.055389	0.06995
18.308	-0.12201	0.27126	0.18123	-0.015285	0.055391	0.070251
18.317	-0.12152	0.26944	0.17712	-0.015043	0.055393	0.070535
18.325	-0.12106	0.26735	0.17307	-0.014745	0.055395	0.070802
18.333	-0.12064	0.26502	0.1691	-0.014394	0.055397	0.071052
18.342	-0.12026	0.26247	0.16524	-0.013993	0.055399	0.071284
18.35	-0.11992	0.25974	0.16149	-0.013542	0.055401	0.071499
18.358	-0.11961	0.25685	0.15789	-0.013046	0.055403	0.071697
18.367	-0.11935	0.25383	0.15445	-0.012505	0.055406	0.071877
18.375	-0.11913	0.25069	0.15117	-0.011922	0.055408	0.072039
18.383	-0.11894	0.24746	0.14808	-0.011301	0.05541	0.072182
18.392	-0.11879	0.24416	0.14519	-0.010641	0.055412	0.072307
18.4	-0.11867	0.24081	0.1425	-0.0099464	0.055414	0.072413
18.408	-0.11859	0.23743	0.14001	-0.0092182	0.055416	0.072499
18.417	-0.11853	0.23402	0.13775	-0.0084582	0.055418	0.072565
18.425	-0.1185	0.2306	0.13569	-0.007668	0.055421	0.07261
18.433	-0.11849	0.22718	0.13386	-0.0068489	0.055423	0.072634
18.442	-0.1185	0.22376	0.13224	-0.006002	0.055425	0.072638
18.45	-0.11852	0.22036	0.13084	-0.0051283	0.055427	0.072619
18.458	-0.11856	0.21697	0.12965	-0.0042284	0.055429	0.072579
18.467	-0.1186	0.21361	0.12866	-0.0033029	0.055431	0.072517
18.475	-0.11866	0.21026	0.12787	-0.002352	0.055432	0.072432
18.483	-0.11871	0.20695	0.12727	-0.0013761	0.055434	0.072326
18.492	-0.11877	0.20366	0.12685	-0.00037506	0.055436	0.072197
18.5	-0.11883	0.2004	0.1266	0.00065099	0.055438	0.072047
18.508	-0.11889	0.19717	0.1265	0.0017021	0.055439	0.071875
18.517	-0.11895	0.19397	0.12656	0.0027782	0.055441	0.071682
18.525	-0.119	0.1908	0.12675	0.0038794	0.055443	0.071468
18.533	-0.11905	0.18767	0.12706	0.0050053	0.055444	0.071235
18.542	-0.11909	0.18457	0.12749	0.0061556	0.055446	0.070982
18.55	-0.11913	0.18152	0.128	0.0073297	0.055447	0.070712
18.558	-0.11916	0.1785	0.1286	0.008527	0.055449	0.070426
18.567	-0.11918	0.17553	0.12927	0.0097463	0.05545	0.070123
18.575	-0.1192	0.1726	0.13	0.010986	0.055452	0.069807
18.583	-0.11922	0.16973	0.13076	0.012245	0.055453	0.069478
18.592	-0.11923	0.16691	0.13156	0.013521	0.055455	0.069139
18.6	-0.11923	0.16415	0.13238	0.014811	0.055456	0.068791
18.608	-0.11923	0.16146	0.1332	0.016113	0.055458	0.068436
18.617	-0.11922	0.15883	0.13403	0.017423	0.055459	0.068076
18.625	-0.11922	0.15628	0.13483	0.018739	0.055461	0.067713
18.633	-0.1192	0.1538	0.13562	0.020056	0.055462	0.06735
18.642	-0.11919	0.1514	0.13637	0.021369	0.055463	0.066989
18.65	-0.11917	0.1491	0.13709	0.022675	0.055465	0.066633
18.658	-0.11915	0.14688	0.13776	0.023969	0.055466	0.066283
